<svg xmlns="http://www.w3.org/2000/svg" version="1.1" xlink="http://www.w3.org/1999/xlink" xmlns:svgjs="http://svgjs.com/svgjs" width="100%" height="100%" viewBox="7.373000144958496 7.373000144958496 49.255001068115234 49.255001068115234"><g fill="#0f0f0f"><path d="M48.071 7.373H15.929c-4.718 0-8.556 3.838-8.556 8.556v32.143c0 4.718 3.838 8.556 8.556 8.556h32.143c4.718 0 8.556-3.838 8.556-8.556V15.929c-.001-4.718-3.839-8.556-8.557-8.556zm4.556 40.698a4.561 4.561 0 0 1-4.556 4.556H15.929a4.561 4.561 0 0 1-4.556-4.556V15.929a4.561 4.561 0 0 1 4.556-4.556h32.143a4.561 4.561 0 0 1 4.556 4.556v32.142z"></path><path d="M20.585 12.935c-3.345 0-6.065 2.721-6.065 6.065s2.721 6.065 6.065 6.065c3.344 0 6.065-2.721 6.065-6.065s-2.72-6.065-6.065-6.065zm0 8.13c-1.139 0-2.065-.927-2.065-2.065s.927-2.065 2.065-2.065 2.065.926 2.065 2.065-.926 2.065-2.065 2.065zm0 4.87c-3.345 0-6.065 2.721-6.065 6.065s2.721 6.065 6.065 6.065c3.344 0 6.065-2.721 6.065-6.065s-2.72-6.065-6.065-6.065zm0 8.13c-1.139 0-2.065-.927-2.065-2.065s.927-2.065 2.065-2.065 2.065.926 2.065 2.065-.926 2.065-2.065 2.065zm0 4.87c-3.345 0-6.065 2.721-6.065 6.065s2.721 6.065 6.065 6.065c3.344 0 6.065-2.721 6.065-6.065s-2.72-6.065-6.065-6.065zm0 8.13c-1.139 0-2.065-.927-2.065-2.065s.927-2.065 2.065-2.065 2.065.926 2.065 2.065-.926 2.065-2.065 2.065zM48.143 17H31.214c-2.574 0-2.578 4 0 4h16.929c2.574 0 2.578-4 0-4zm0 13H31.214c-2.574 0-2.578 4 0 4h16.929c2.574 0 2.578-4 0-4zm0 13H31.214c-2.574 0-2.578 4 0 4h16.929c2.574 0 2.578-4 0-4z"></path></g></svg>

